<svg xmlns="http://www.w3.org/2000/svg" xmlns:xlink="http://www.w3.org/1999/xlink" width="369" zoomAndPan="magnify" viewBox="0 0 276.75 259.499997" height="346" preserveAspectRatio="xMidYMid meet" version="1.0"><defs><g/><clipPath id="7c34b3f648"><path d="M 0.140625 22 L 276.359375 22 L 276.359375 173 L 0.140625 173 Z M 0.140625 22 " clip-rule="nonzero"/></clipPath><clipPath id="0e21f6fff1"><path d="M 0.140625 72 L 276.359375 72 L 276.359375 239 L 0.140625 239 Z M 0.140625 72 " clip-rule="nonzero"/></clipPath></defs><g clip-path="url(#7c34b3f648)"><path stroke-linecap="butt" transform="matrix(0.749234, 0, 0, 0.749234, 0.435872, 64.932207)" fill="none" stroke-linejoin="miter" d="M 72.826566 71.001463 L 94.838636 71.001463 L 94.838636 69.755398 L 73.95793 69.755398 C 76.601255 66.507288 85.323707 56.575268 85.323707 44.078126 C 85.323707 32.863545 79.135094 20.668796 60.36592 20.668796 L 43.374605 20.668796 L 43.374605 31.466284 C 43.374605 38.337887 48.171171 44.229322 54.891578 45.777779 C 57.008324 46.194872 60.063528 46.872648 63.426338 47.738115 C 75.094508 50.798533 77.586637 66.658485 67.352224 72.810603 C 64.974795 74.207863 62.743349 74.927348 60.631817 74.927348 C 56.288839 74.927348 52.926029 71.981631 51.231589 67.904549 C 48.437068 60.76705 50.965693 56.012192 52.926029 50.38144 C 52.926029 50.38144 49.834329 49.818365 46.054426 49.818365 C 39.334019 49.818365 30.084987 51.669214 30.084987 62.315506 C 30.084987 74.207863 41.977344 77.455973 51.533982 77.455973 C 61.611985 77.455973 68.332392 74.776152 72.826566 71.001463 Z M 129.483402 19.683414 C 129.483402 13.494801 124.572135 8.583534 118.420017 8.583534 C 112.377385 8.583534 107.471332 13.494801 107.471332 19.683414 C 107.471332 25.726046 112.377385 30.637313 118.420017 30.637313 C 124.572135 30.637313 129.483402 25.726046 129.483402 19.683414 Z M 129.483402 69.755398 C 127.517852 69.755398 125.818199 68.055745 125.818199 66.090196 L 125.818199 38.75498 L 101.579897 41.549501 L 101.579897 61.898414 C 101.579897 66.356092 96.819826 69.755398 92.174456 69.755398 L 91.345484 69.755398 L 91.345484 71.001463 L 139.978498 71.001463 L 139.978498 69.755398 Z M 243.766813 69.755398 C 251.884481 69.755398 254.267123 62.993282 254.267123 51.669214 L 254.267123 32.14406 C 254.267123 19.120339 241.086992 19.120339 230.852579 19.120339 L 205.743596 19.120339 C 196.796957 19.120339 192.719875 24.292289 191.47381 32.295256 L 166.927903 32.295256 C 155.713321 32.295256 152.053333 40.001045 152.053333 51.669214 L 152.053333 65.678317 C 152.053333 67.904549 150.238979 69.755398 147.971037 69.755398 L 137.475941 69.755398 L 137.475941 71.001463 L 265.627686 71.001463 L 265.627686 69.755398 Z M 216.541084 28.786464 C 216.541084 24.177589 219.486802 20.5176 223.82978 20.5176 L 225.529433 20.5176 C 230.852579 20.5176 229.872411 27.540399 229.872411 32.712349 L 229.872411 58.504321 C 229.872411 64.692935 229.043439 69.755398 224.549265 69.755398 L 216.541084 69.755398 Z M 177.725391 41.851894 C 177.725391 37.206523 180.519912 33.541321 185.014087 33.541321 L 186.677244 33.541321 C 191.322614 33.541321 190.905522 40.715316 190.905522 45.777779 L 190.905522 58.504321 C 190.905522 64.692935 190.03484 69.755398 185.697076 69.755398 L 177.725391 69.755398 Z M 336.293624 54.312539 L 336.293624 48.269908 C 336.293624 36.377551 332.367739 32.14406 320.741279 32.14406 L 289.057871 32.14406 C 280.225932 32.14406 272.937237 39.432756 272.937237 48.269908 L 272.937237 51.669214 C 272.937237 62.732599 274.334497 69.453006 283.432333 69.453006 L 262.96872 69.453006 L 262.96872 71.001463 L 319.755897 71.001463 C 328.858946 71.001463 336.293624 63.561571 336.293624 54.312539 Z M 297.441435 58.389621 L 297.441435 45.777779 C 297.441435 40.001045 298.312117 33.541321 302.806291 33.541321 L 306.992859 33.541321 C 309.938577 33.541321 312.321219 35.960459 312.321219 38.906176 L 312.321219 60.349957 C 312.321219 66.241392 306.690467 69.755398 301.257834 69.755398 C 297.592632 69.755398 297.441435 65.375924 297.441435 58.389621 Z M 297.441435 58.389621 " stroke="#ffffff" stroke-width="11.6001" stroke-opacity="1" stroke-miterlimit="4"/></g><g clip-path="url(#0e21f6fff1)"><path stroke-linecap="butt" transform="matrix(0.749234, 0, 0, 0.749234, 0.435872, 64.932207)" fill="none" stroke-linejoin="miter" d="M 68.520084 149.665154 C 71.862039 147.856014 76.476128 145.489013 81.189276 143.679873 C 85.563536 142.042784 90.005573 140.947916 93.446589 141.677828 C 95.620685 142.214835 97.89384 143.580814 100.062722 145.661064 C 100.062722 145.661064 99.697766 133.523665 87.539513 130.348546 C 85.636527 129.81154 83.655336 129.618634 81.559445 129.618634 C 74.771261 129.618634 66.147869 132.621702 58.358662 136.062717 C 56.163711 137.06374 53.916624 137.501687 51.742528 137.501687 C 43.19734 137.501687 35.606252 130.713503 35.606252 123.169338 C 35.606252 110.672196 47.571601 110.302026 49.10963 110.302026 L 49.10963 113.378085 C 49.10963 118.654309 53.650727 123.0025 59.166779 123.0025 L 77.74826 123.0025 L 77.74826 122.194383 L 71.059136 122.194383 C 61.340875 122.194383 63.441979 109.301004 63.441979 109.301004 L 49.10963 109.301004 C 36.581207 109.301004 32.603185 118.383198 32.603185 131.52162 C 32.603185 143.950984 43.833407 153.106169 56.09072 153.106169 C 60.266861 153.106169 64.515993 152.006087 68.520084 149.665154 Z M 96.621707 153.836082 C 96.621707 149.931051 93.253683 146.662086 89.077542 146.662086 C 85.000461 146.662086 81.653291 149.931051 81.653291 153.836082 C 81.653291 157.720258 85.000461 160.895376 89.077542 160.895376 C 93.253683 160.895376 96.621707 157.720258 96.621707 153.836082 Z M 80.751328 159.623243 C 80.751328 155.645221 77.383304 152.470103 73.306223 152.470103 C 69.150936 152.470103 65.782912 155.645221 65.782912 159.550252 C 65.782912 163.533488 69.150936 166.703393 73.306223 166.703393 C 77.383304 166.703393 80.751328 163.533488 80.751328 159.623243 Z M 123.26872 112.210226 L 123.26872 108.299981 C 123.26872 100.609834 120.729668 97.877876 113.206357 97.877876 L 92.72189 97.877876 C 87.007719 97.877876 82.294571 102.585811 82.294571 108.299981 L 82.294571 110.500146 C 82.294571 117.653286 83.201748 122.001478 89.082756 122.001478 L 75.850488 122.001478 L 75.850488 123.0025 L 112.570291 123.0025 C 118.456512 123.0025 123.26872 118.190293 123.26872 112.210226 Z M 98.144096 114.843124 L 98.144096 106.688961 C 98.144096 102.955981 98.701957 98.779839 101.611179 98.779839 L 104.317068 98.779839 C 106.225267 98.779839 107.763297 100.343937 107.763297 102.246923 L 107.763297 116.115257 C 107.763297 119.921228 104.124163 122.194383 100.610156 122.194383 C 98.237941 122.194383 98.144096 119.363366 98.144096 114.843124 Z M 158.09075 122.194383 C 154.915632 122.194383 152.376579 119.655331 152.376579 116.480213 L 152.376579 75.949225 L 135.677229 77.659306 L 135.677229 109.228013 C 135.677229 116.824314 141.855415 123.0025 149.472571 123.0025 L 164.878934 123.0025 L 164.878934 122.194383 Z M 188.621939 123.0025 L 218.824667 123.0025 L 218.824667 122.194383 L 203.225398 122.194383 C 209.669481 120.192338 214.919636 114.577227 214.919636 107.762974 C 214.919636 104.858966 214.846645 92.257552 197.240118 92.257552 C 194.263118 92.257552 191.35911 92.893618 188.621939 93.9937 L 188.621939 80.464254 L 172.042502 82.299462 L 172.042502 122.194383 L 163.158427 122.194383 L 163.158427 123.0025 L 172.042502 123.0025 L 172.042502 124.26942 C 172.042502 126.980523 170.410627 130.619657 167.334568 130.885553 C 171.04148 132.621702 174.216598 133.33076 176.85471 133.33076 C 185.373829 133.33076 188.621939 126.078559 188.621939 123.0025 Z M 193.799103 93.430625 C 197.438237 93.430625 199.685324 99.509752 199.612333 106.496055 C 199.612333 114.916115 197.146272 122.194383 188.621939 122.194383 C 188.621939 114.306117 186.818013 93.430625 193.799103 93.430625 Z M 271.962283 124.634376 L 275.137401 123.0025 L 284.636688 123.0025 L 284.636688 122.194383 L 276.748422 122.194383 C 271.039465 122.194383 262.614191 113.576205 256.99908 108.034085 C 250.455938 101.881967 243.834591 98.972745 237.218457 99.415906 C 225.086272 100.244878 222.349101 112.111166 222.349101 112.111166 C 224.815162 110.500146 227.161308 109.572114 229.335404 109.400063 C 238.756487 109.400063 251.821917 122.194383 251.821917 122.194383 L 217.098946 122.194383 L 217.098946 123.0025 L 252.72388 123.0025 C 255.898998 125.369502 259.710183 126.636421 263.615214 126.636421 C 266.420163 126.636421 269.329385 125.906509 271.962283 124.634376 Z M 306.58098 116.381153 L 306.58098 75.949225 L 289.808638 77.758365 L 289.808638 117.116279 C 289.271631 119.994219 286.732579 122.194383 283.729512 122.194383 L 282.921394 122.194383 L 282.921394 123.0025 L 298.692714 123.0025 C 302.602958 123.0025 305.944914 120.192338 306.58098 116.381153 Z M 318.452482 77.659306 L 318.452482 123.0025 L 335.151833 123.0025 L 335.151833 75.949225 Z M 318.452482 77.659306 " stroke="#ffffff" stroke-width="11.6001" stroke-opacity="1" stroke-miterlimit="4"/></g><g fill="#143b4a" fill-opacity="1"><g transform="translate(20.232035, 118.12781)"><g><path d="M 34.773438 0 L 51.265625 0 L 51.265625 -0.945312 L 35.613281 -0.945312 C 37.609375 -3.363281 44.125 -10.820312 44.125 -20.171875 C 44.125 -28.574219 39.5 -37.714844 25.421875 -37.714844 L 12.710938 -37.714844 L 12.710938 -29.625 C 12.710938 -24.476562 16.285156 -20.066406 21.328125 -18.910156 C 22.902344 -18.59375 25.214844 -18.070312 27.734375 -17.4375 C 36.453125 -15.128906 38.34375 -3.257812 30.675781 1.367188 C 28.890625 2.417969 27.210938 2.941406 25.632812 2.941406 C 22.375 2.941406 19.855469 0.734375 18.59375 -2.3125 C 16.492188 -7.667969 18.382812 -11.242188 19.855469 -15.441406 C 19.855469 -15.441406 17.542969 -15.863281 14.707031 -15.863281 C 9.664062 -15.863281 2.730469 -14.496094 2.730469 -6.511719 C 2.730469 2.417969 11.660156 4.832031 18.804688 4.832031 C 26.367188 4.832031 31.410156 2.835938 34.773438 0 Z M 34.773438 0 "/></g></g></g><g fill="#143b4a" fill-opacity="1"><g transform="translate(69.922212, 118.12781)"><g><path d="M 27.523438 -38.449219 C 27.523438 -43.074219 23.847656 -46.75 19.226562 -46.75 C 14.707031 -46.75 11.03125 -43.074219 11.03125 -38.449219 C 11.03125 -33.933594 14.707031 -30.257812 19.226562 -30.257812 C 23.847656 -30.257812 27.523438 -33.933594 27.523438 -38.449219 Z M 27.523438 -0.945312 C 26.054688 -0.945312 24.792969 -2.207031 24.792969 -3.675781 L 24.792969 -24.164062 L 6.617188 -22.0625 L 6.617188 -6.828125 C 6.617188 -3.46875 3.046875 -0.945312 -0.421875 -0.945312 L -1.050781 -0.945312 L -1.050781 0 L 35.402344 0 L 35.402344 -0.945312 Z M 27.523438 -0.945312 "/></g></g></g><g fill="#143b4a" fill-opacity="1"><g transform="translate(104.484728, 118.12781)"><g><path d="M 78.582031 -0.945312 C 84.675781 -0.945312 86.460938 -5.988281 86.460938 -14.496094 L 86.460938 -29.101562 C 86.460938 -38.871094 76.585938 -38.871094 68.917969 -38.871094 L 50.113281 -38.871094 C 43.386719 -38.871094 40.339844 -34.984375 39.394531 -28.996094 L 21.011719 -28.996094 C 12.605469 -28.996094 9.875 -23.21875 9.875 -14.496094 L 9.875 -3.992188 C 9.875 -2.3125 8.507812 -0.945312 6.828125 -0.945312 L -1.050781 -0.945312 L -1.050781 0 L 94.96875 0 L 94.96875 -0.945312 Z M 58.199219 -31.621094 C 58.199219 -35.089844 60.40625 -37.820312 63.664062 -37.820312 L 64.925781 -37.820312 C 68.917969 -37.820312 68.179688 -32.566406 68.179688 -28.679688 L 68.179688 -9.351562 C 68.179688 -4.726562 67.550781 -0.945312 64.1875 -0.945312 L 58.199219 -0.945312 Z M 29.101562 -21.851562 C 29.101562 -25.320312 31.203125 -28.050781 34.5625 -28.050781 L 35.824219 -28.050781 C 39.289062 -28.050781 38.976562 -22.691406 38.976562 -18.910156 L 38.976562 -9.351562 C 38.976562 -4.726562 38.34375 -0.945312 35.089844 -0.945312 L 29.101562 -0.945312 Z M 29.101562 -21.851562 "/></g></g></g><g fill="#143b4a" fill-opacity="1"><g transform="translate(198.507368, 118.12781)"><g><path d="M 53.894531 -12.5 L 53.894531 -17.019531 C 53.894531 -25.949219 50.953125 -29.101562 42.230469 -29.101562 L 18.488281 -29.101562 C 11.871094 -29.101562 6.410156 -23.636719 6.410156 -17.019531 L 6.410156 -14.496094 C 6.410156 -6.199219 7.457031 -1.15625 14.289062 -1.15625 L -1.050781 -1.15625 L -1.050781 0 L 41.496094 0 C 48.324219 0 53.894531 -5.566406 53.894531 -12.5 Z M 24.792969 -9.453125 L 24.792969 -18.910156 C 24.792969 -23.21875 25.421875 -28.050781 28.785156 -28.050781 L 31.9375 -28.050781 C 34.144531 -28.050781 35.929688 -26.265625 35.929688 -24.058594 L 35.929688 -7.984375 C 35.929688 -3.570312 31.726562 -0.945312 27.628906 -0.945312 C 24.898438 -0.945312 24.792969 -4.203125 24.792969 -9.453125 Z M 24.792969 -9.453125 "/></g></g></g><g fill="#143b4a" fill-opacity="1"><g transform="translate(22.959714, 157.08797)"><g><path d="M 28.804688 19.972656 C 31.316406 18.613281 34.78125 16.847656 38.316406 15.488281 C 41.574219 14.265625 44.902344 13.449219 47.484375 13.996094 C 49.117188 14.402344 50.8125 15.421875 52.445312 16.984375 C 52.445312 16.984375 52.171875 7.878906 43.070312 5.503906 C 41.644531 5.09375 40.148438 4.960938 38.585938 4.960938 C 33.492188 4.960938 27.039062 7.199219 21.195312 9.78125 C 19.566406 10.53125 17.867188 10.871094 16.234375 10.871094 C 9.851562 10.871094 4.144531 5.773438 4.144531 0.136719 C 4.144531 -9.238281 13.109375 -9.511719 14.265625 -9.511719 L 14.265625 -7.199219 C 14.265625 -3.261719 17.664062 0 21.808594 0 L 35.734375 0 L 35.734375 -0.613281 L 30.707031 -0.613281 C 23.4375 -0.613281 25 -10.257812 25 -10.257812 L 14.265625 -10.257812 C 4.890625 -10.257812 1.902344 -3.464844 1.902344 6.386719 C 1.902344 15.691406 10.324219 22.554688 19.496094 22.554688 C 22.621094 22.554688 25.816406 21.738281 28.804688 19.972656 Z M 49.863281 23.097656 C 49.863281 20.175781 47.351562 17.730469 44.226562 17.730469 C 41.167969 17.730469 38.652344 20.175781 38.652344 23.097656 C 38.652344 26.019531 41.167969 28.394531 44.226562 28.394531 C 47.351562 28.394531 49.863281 26.019531 49.863281 23.097656 Z M 37.976562 27.445312 C 37.976562 24.457031 35.460938 22.078125 32.40625 22.078125 C 29.28125 22.078125 26.765625 24.457031 26.765625 27.378906 C 26.765625 30.367188 29.28125 32.742188 32.40625 32.742188 C 35.460938 32.742188 37.976562 30.367188 37.976562 27.445312 Z M 37.976562 27.445312 "/></g></g></g><g fill="#143b4a" fill-opacity="1"><g transform="translate(57.94205, 157.08797)"><g><path d="M 34.851562 -8.085938 L 34.851562 -11.003906 C 34.851562 -16.78125 32.949219 -18.816406 27.308594 -18.816406 L 11.957031 -18.816406 C 7.675781 -18.816406 4.144531 -15.285156 4.144531 -11.003906 L 4.144531 -9.375 C 4.144531 -4.007812 4.824219 -0.746094 9.238281 -0.746094 L -0.679688 -0.746094 L -0.679688 0 L 26.832031 0 C 31.25 0 34.851562 -3.601562 34.851562 -8.085938 Z M 16.03125 -6.113281 L 16.03125 -12.226562 C 16.03125 -15.011719 16.441406 -18.136719 18.613281 -18.136719 L 20.652344 -18.136719 C 22.078125 -18.136719 23.234375 -16.984375 23.234375 -15.558594 L 23.234375 -5.164062 C 23.234375 -2.308594 20.515625 -0.613281 17.867188 -0.613281 C 16.101562 -0.613281 16.03125 -2.71875 16.03125 -6.113281 Z M 16.03125 -6.113281 "/></g></g></g><g fill="#143b4a" fill-opacity="1"><g transform="translate(95.301823, 157.08797)"><g><path d="M 23.574219 -0.613281 C 21.195312 -0.613281 19.292969 -2.511719 19.292969 -4.890625 L 19.292969 -35.257812 L 6.792969 -33.96875 L 6.792969 -10.324219 C 6.792969 -4.621094 11.414062 0 17.121094 0 L 28.667969 0 L 28.667969 -0.613281 Z M 23.574219 -0.613281 "/></g></g></g><g fill="#143b4a" fill-opacity="1"><g transform="translate(123.355621, 157.08797)"><g><path d="M 18.410156 0 L 41.03125 0 L 41.03125 -0.613281 L 29.347656 -0.613281 C 34.171875 -2.105469 38.109375 -6.316406 38.109375 -11.414062 C 38.109375 -13.585938 38.042969 -23.03125 24.863281 -23.03125 C 22.621094 -23.03125 20.449219 -22.554688 18.410156 -21.738281 L 18.410156 -31.859375 L 5.976562 -30.503906 L 5.976562 -0.613281 L -0.679688 -0.613281 L -0.679688 0 L 5.976562 0 L 5.976562 0.949219 C 5.976562 2.988281 4.753906 5.707031 2.445312 5.910156 C 5.230469 7.199219 7.609375 7.746094 9.578125 7.746094 C 15.964844 7.746094 18.410156 2.308594 18.410156 0 Z M 22.28125 -22.144531 C 25 -22.144531 26.699219 -17.59375 26.628906 -12.363281 C 26.628906 -6.046875 24.796875 -0.613281 18.410156 -0.613281 C 18.410156 -6.523438 17.050781 -22.144531 22.28125 -22.144531 Z M 22.28125 -22.144531 "/></g></g></g><g fill="#143b4a" fill-opacity="1"><g transform="translate(163.772109, 157.08797)"><g><path d="M 40.421875 1.222656 L 42.796875 0 L 49.929688 0 L 49.929688 -0.613281 L 44.019531 -0.613281 C 39.742188 -0.613281 33.421875 -7.066406 29.210938 -11.210938 C 24.320312 -15.828125 19.359375 -18.003906 14.402344 -17.664062 C 5.300781 -17.050781 3.261719 -8.152344 3.261719 -8.152344 C 5.09375 -9.375 6.859375 -10.054688 8.492188 -10.191406 C 15.558594 -10.191406 25.339844 -0.613281 25.339844 -0.613281 L -0.679688 -0.613281 L -0.679688 0 L 26.019531 0 C 28.394531 1.765625 31.25 2.71875 34.171875 2.71875 C 36.277344 2.71875 38.449219 2.175781 40.421875 1.222656 Z M 40.421875 1.222656 "/></g></g></g><g fill="#143b4a" fill-opacity="1"><g transform="translate(213.087006, 157.08797)"><g><path d="M 17.050781 -4.960938 L 17.050781 -35.257812 L 4.484375 -33.898438 L 4.484375 -4.414062 C 4.074219 -2.242188 2.175781 -0.613281 -0.0664062 -0.613281 L -0.679688 -0.613281 L -0.679688 0 L 11.140625 0 C 14.0625 0 16.574219 -2.105469 17.050781 -4.960938 Z M 17.050781 -4.960938 "/></g></g></g><g fill="#143b4a" fill-opacity="1"><g transform="translate(232.242395, 157.08797)"><g><path d="M 6.792969 -33.96875 L 6.792969 0 L 19.292969 0 L 19.292969 -35.257812 Z M 6.792969 -33.96875 "/></g></g></g></svg>